<?xml version="1.0" encoding="utf-8"?>
<!-- Generator: Adobe Illustrator 22.0.1, SVG Export Plug-In . SVG Version: 6.00 Build 0)  -->
<svg version="1.1" id="Capa_1" xmlns="http://www.w3.org/2000/svg" xmlns:xlink="http://www.w3.org/1999/xlink" x="0px" y="0px"
	 viewBox="0 0 248.9 252.3" style="enable-background:new 0 0 248.9 252.3;" xml:space="preserve">
<style type="text/css">
	.st0{fill:#FFFFFF;}
</style>
<g>
	<path class="st0" d="M80.3,192.1c-12.1,0-22.1,9.9-22.1,22.1c0,12.2,10,22.1,22.1,22.1s22.1-9.9,22.1-22.1
		C102.4,202,92.5,192.1,80.3,192.1L80.3,192.1z M14,15.3v22.1h22.1l39.8,84l-15.5,26.5c-1.1,3.3-2.2,7.7-2.2,11
		c0,12.2,10,22.1,22.1,22.1h132.6v-22.1H84.7c-1.1,0-2.2-1.1-2.2-2.2v-1.1l9.9-18.8h81.8c8.8,0,15.4-4.4,18.8-11.1L232.8,54
		c2.2-2.2,2.2-3.3,2.2-5.6c0-6.6-4.4-11-11.1-11H60.4l-9.9-22.1H14z M190.8,192.1c-12.1,0-22.1,9.9-22.1,22.1
		c0,12.2,10,22.1,22.1,22.1c12.1,0,22.1-9.9,22.1-22.1C212.9,202,203,192.1,190.8,192.1L190.8,192.1z M190.8,192.1"/>
</g>
</svg>
